<?xml version="1.0" encoding="UTF-8"?>
<svg width="1000px" height="463px" viewBox="0 0 1000 463" version="1.1" xmlns="http://www.w3.org/2000/svg" xmlns:xlink="http://www.w3.org/1999/xlink">
    <title>CNN News</title>
    <desc>We Save Homes on CNN News</desc>
    <g stroke="none" stroke-width="1" fill="none" fill-rule="evenodd">
        <g id="CNN" transform="translate(0.000000, -2.000000)" fill-rule="nonzero">
            <path d="M75.813736,232.455765 C75.813736,317.679932 145.147598,387.013794 230.371689,387.013794 L374.73761,387.013794 C383.804077,387.013794 390.83551,378.395813 390.83551,370.97406 L390.83551,87.7451553 C390.83551,69.8530197 405.392578,55.2919044 423.280457,55.2919044 C434.755829,55.2919044 445.450348,61.376358 451.181824,71.1779022 C451.90033,72.4115219 495.608856,147.767487 541.879822,227.554993 C586.090881,303.795654 631.81366,382.632202 632.532166,383.869751 C634.84552,387.815338 639.368347,390.361298 644.061524,390.361298 C651.495728,390.361298 657.546997,384.314239 657.546997,376.875763 L657.546997,87.7451553 C657.546997,69.8530197 672.095764,55.2919044 689.992004,55.2919044 C701.467346,55.2919044 712.161865,61.376358 717.88916,71.1779022 C718.616028,72.4115219 762.287109,147.767487 808.529114,227.559189 C852.698547,303.783234 898.379822,382.598846 899.114929,383.869751 C901.428284,387.815338 905.951111,390.361298 910.644287,390.361298 C918.078613,390.361298 924.12146,384.314239 924.12146,376.875763 L924.12146,2.0226164 L867.218262,2.0226164 L867.218262,225.154422 C867.218262,225.154422 764.114563,47.6914396 760.77533,41.9849424 C745.72406,16.2557125 717.183106,0 686.806519,0 C639.223023,0 600.635498,38.6042442 600.635498,86.1835098 L600.635498,225.154427 C600.635498,225.154427 497.535889,47.6914443 494.192596,41.9849471 C479.141266,16.2557125 450.600372,0 420.223724,0 C372.640289,0 334.052704,38.6042442 334.052704,86.1835098 L334.052704,314.540077 C334.081757,322.850685 327.835327,330.093849 318.739746,330.110451 L230.982223,330.110451 C177.052643,330.110451 133.33168,286.389595 133.33168,232.455772 C133.33168,178.522087 177.052643,134.801094 230.982223,134.801094 L304.490051,134.801094 L304.490051,77.8978577 L230.371689,77.8978577 C145.147598,77.8978577 75.813736,147.23172 75.813736,232.455765" fill="#8C8C8C"></path>
            <path d="M943.09259,2.0208421 L943.09259,376.878172 C943.09259,394.774352 928.543762,409.33142 910.647583,409.33142 C899.172241,409.33142 888.477661,403.246947 882.746155,393.449461 C882.027771,392.215972 838.348328,316.855834 792.114685,237.068312 C747.93689,160.848326 702.268066,82.0243364 701.520447,80.7576433 C699.215454,76.8121553 694.684265,74.2620226 689.99115,74.2620226 C682.556885,74.2620226 676.513916,80.3090883 676.513916,87.743384 L676.513916,376.87818 C676.513916,394.774359 661.956909,409.331427 644.064819,409.331427 C632.589477,409.331427 621.903259,403.246955 616.163452,393.449469 C615.445007,392.215979 571.736511,316.8599 525.465454,237.06832 C481.250275,160.831732 435.531647,81.9953219 434.808929,80.757651 C432.495605,76.812163 427.972748,74.2620303 423.279632,74.2620303 C415.845337,74.2620303 409.802399,80.309096 409.802399,87.7433917 L409.802399,370.976363 C409.802399,389.624404 393.417969,405.983931 374.740967,405.983931 L230.374969,405.983931 C134.6931,405.983931 56.8451233,328.14424 56.8451233,232.454009 C56.8451233,136.772139 134.693108,58.9284046 230.374969,58.9284046 L304.489197,58.9284046 L304.489197,2.0208421 L230.441452,2.0208421 C103.174294,2.0208421 0,105.186958 0,232.453995 C0,359.725342 103.174294,462.895508 230.441452,462.895508 L376.19043,462.895508 C431.40332,462.92453 466.90918,430.575104 466.834473,370.905762 L466.834473,239.468887 C466.834473,239.468887 570.673279,418.194397 573.281494,422.642426 C588.332764,448.367493 616.873718,464.623199 647.250305,464.623199 C694.837952,464.623199 733.417236,426.019073 733.417236,378.443848 L733.417236,239.468887 C733.417236,239.468887 836.520935,416.935944 839.860108,422.642426 C854.915527,448.367493 883.456482,464.623199 913.833069,464.623199 C961.416565,464.623199 1000,426.019073 1000,378.443848 L1000,2.0208421 L943.09259,2.0208421 Z" fill="#8C8C8C"></path>
            <path d="M230.372509,405.985687 L374.73843,405.985687 C393.415493,405.985687 409.804104,389.62619 409.804104,370.97406 L409.804104,87.7451553 C409.804104,80.310852 415.847042,74.2637863 423.281277,74.2637863 C427.974453,74.2637863 432.49725,76.8097381 434.810635,80.7552261 C435.529171,81.9970855 481.251919,160.833496 525.467159,237.070107 C571.738155,316.857613 615.44244,392.21357 616.165157,393.451271 C621.900753,403.248757 632.586971,409.329018 644.062313,409.329018 C661.958614,409.329018 676.51556,394.77195 676.51556,376.875771 L676.51556,87.7451553 C676.51556,80.310852 682.558529,74.2637863 689.992855,74.2637863 C694.685909,74.2637863 699.213009,76.8097381 701.522152,80.7552261 C702.26556,82.0261078 747.938534,160.846039 792.116329,237.065926 C838.349972,316.853432 882.025204,392.21357 882.747921,393.451271 C888.479427,403.248757 899.169674,409.329018 910.645016,409.329018 C928.541378,409.329018 943.094234,394.77195 943.094234,376.875771 L943.094234,2.0226164 L924.122372,2.0226164 L924.122372,376.875766 C924.122372,384.314242 918.079342,390.361301 910.645016,390.361301 C905.952022,390.361301 901.429073,387.815341 899.115719,383.869754 C898.376522,382.598849 852.699398,303.783237 808.529903,227.559192 C762.28796,147.76749 718.616818,72.4115172 717.890011,71.1779052 C712.158504,61.376361 701.468197,55.2919074 689.992855,55.2919074 C672.096554,55.2919074 657.543697,69.8530227 657.543697,87.7451583 L657.543697,376.875774 C657.543697,384.31425 651.496578,390.361308 644.062313,390.361308 C639.369198,390.361308 634.846371,387.815349 632.533016,383.869762 C631.814449,382.632213 586.091732,303.795665 541.876461,227.555003 C495.605495,147.767497 451.90115,72.4115402 451.178463,71.1779128 C445.447048,61.3763686 434.756649,55.291915 423.281277,55.291915 C405.389217,55.291915 390.83633,69.8530303 390.83633,87.7451659 L390.83633,370.974078 C390.83633,378.395831 383.804897,387.013812 374.73843,387.013812 L230.372509,387.013812 C145.148418,387.013812 75.814556,317.67995 75.814556,232.455783 C75.814556,147.231738 145.148418,77.8978759 230.372509,77.8978759 L304.486721,77.8978759 L304.486721,58.9259758 L230.372509,58.9259758 C134.690628,58.9259758 56.8468132,136.769836 56.8468132,232.455765 C56.8468132,328.141815 134.690624,405.985687 230.372509,405.985687 Z" fill-opacity="0" fill="#FFFFFF"></path>
        </g>
    </g>
</svg>