<?xml version="1.0" encoding="UTF-8"?>
<svg width="185px" height="25px" viewBox="0 0 185 25" version="1.1" xmlns="http://www.w3.org/2000/svg" xmlns:xlink="http://www.w3.org/1999/xlink">
    <title>New York Times</title>
    <desc>We Save Homes on New York Times</desc>
    <g stroke="none" stroke-width="1" fill="none" fill-rule="evenodd">
        <g id="New-York-Times" fill="#8C8C8C" fill-rule="nonzero">
            <path d="M13.8,2.9 C13.8,0.9 11.9,0.4 10.4,0.4 L10.4,0.7 C11.3,0.7 12,1 12,1.7 C12,2.1 11.7,2.7 10.8,2.7 C10.1,2.7 8.6,2.3 7.5,1.9 C6.2,1.4 5,1 4,1 C2,1 0.6,2.5 0.6,4.2 C0.6,5.7 1.7,6.2 2.1,6.4 L2.2,6.2 C2,6 1.7,5.8 1.7,5.2 C1.7,4.8 2.1,4.1 3.1,4.1 C4,4.1 5.2,4.5 6.8,5 C8.2,5.4 9.7,5.7 10.5,5.8 L10.5,8.9 L9,10.2 L9,10.3 L10.5,11.6 L10.5,15.9 C9.7,16.4 8.8,16.5 8,16.5 C6.5,16.5 5.2,16.1 4.1,14.9 L8.2,12.9 L8.2,6 L3.2,8.2 C3.6,6.9 4.7,6 5.8,5.4 L5.7,5.1 C2.7,5.9 0,8.7 0,12.1 C0,16.1 3.3,19.1 7,19.1 C11,19.1 13.6,15.9 13.6,12.6 L13.4,12.6 C12.8,13.9 11.9,15.1 10.8,15.7 L10.8,11.6 L12.4,10.3 L12.4,10.2 L10.8,8.9 L10.8,5.8 C12.3,5.8 13.8,4.8 13.8,2.9 Z M5.1,13.9 L3.9,14.5 C3.2,13.6 2.8,12.4 2.8,10.7 C2.8,10 2.8,9.2 3,8.6 L5.1,7.7 L5.1,13.9 L5.1,13.9 Z M15.7,16.2 L14.4,17.2 L14.6,17.4 L15.2,16.9 L17.4,18.9 L20.4,16.9 L20.3,16.7 L19.5,17.2 L18.5,16.2 L18.5,9.4 L19.3,8.8 L21,10.2 L21,16.3 C21,20.1 20.2,20.7 18.5,21.3 L18.5,21.6 C21.3,21.7 23.9,20.8 23.9,15.9 L23.9,9.3 L24.8,8.6 L24.6,8.4 L23.8,9 L21.3,6.9 L18.5,9 L18.5,0.8 L18.3,0.8 L14.8,3.2 L14.8,3.4 C15.2,3.6 15.8,3.8 15.8,4.9 L15.7,16.2 L15.7,16.2 Z M34,15.1 L31.5,17 L29,15 L29,13.8 L33.7,10.6 L33.7,10.5 L31.3,6.9 L26.1,9.7 L26.1,16.3 L25.1,17.1 L25.3,17.3 L26.2,16.6 L29.6,19.1 L34.1,15.5 L34,15.1 L34,15.1 Z M29,13.4 L29,8.5 L29.2,8.4 L31.4,11.9 L29,13.4 Z M53.1,2 C53.1,1.7 53,1.4 52.9,1.1 L52.7,1.1 C52.4,1.9 52,2.3 51,2.3 C50.1,2.3 49.5,1.8 49.1,1.4 L46.2,4.7 L46.4,4.9 L47.4,4 C48,4.5 48.5,4.9 49.9,5 L49.9,13.3 L44,3.2 C43.5,2.4 42.8,1.3 41.4,1.3 C39.8,1.3 38.4,2.7 38.6,4.9 L38.9,4.9 C39,4.3 39.3,3.6 40,3.6 C40.5,3.6 41,4.1 41.3,4.6 L41.3,7.9 C39.5,7.9 38.3,8.7 38.3,10.2 C38.3,11 38.7,12.2 39.9,12.5 L39.9,12.3 C39.7,12.1 39.6,11.9 39.6,11.6 C39.6,11.1 40,10.7 40.7,10.7 L41.2,10.7 L41.2,14.9 C39.1,14.9 37.4,16.1 37.4,18.1 C37.4,20 39,20.9 40.8,20.8 L40.8,20.6 C39.7,20.5 39.2,20 39.2,19.3 C39.2,18.4 39.8,18 40.6,18 C41.4,18 42.1,18.5 42.6,19.1 L45.5,15.9 L45.3,15.7 L44.6,16.5 C43.5,15.5 42.9,15.2 41.6,15 L41.6,5 L49.6,19 L50.2,19 L50.2,5 C51.7,4.9 53.1,3.7 53.1,2 L53.1,2 Z M60.4,15.1 L57.9,17 L55.4,15 L55.4,13.8 L60.1,10.6 L60.1,10.5 L57.7,6.9 L52.5,9.7 L52.5,16.3 L51.5,17.1 L51.7,17.3 L52.6,16.6 L56,19.1 L60.5,15.5 L60.4,15.1 L60.4,15.1 Z M55.4,13.4 L55.4,8.5 L55.6,8.4 L57.8,11.9 L55.4,13.4 L55.4,13.4 Z M76.7,8 L76,8.5 L74.1,6.9 L71.9,8.9 L72.8,9.8 L72.8,17.3 L70.4,15.8 L70.4,9.6 L71.2,9.1 L68.9,6.9 L66.7,8.9 L67.6,9.8 L67.6,17 L67.3,17.2 L65.2,15.7 L65.2,9.7 C65.2,8.3 64.5,7.9 63.7,7.4 C63,6.9 62.6,6.6 62.6,5.9 C62.6,5.3 63.2,5 63.5,4.8 L63.5,4.6 C62.7,4.6 60.6,5.4 60.6,7.3 C60.6,8.3 61.1,8.7 61.6,9.2 C62.1,9.7 62.6,10.1 62.6,11 L62.6,16.8 L61.5,17.6 L61.7,17.8 L62.7,17 L65,19 L67.5,17.3 L70.3,19 L75.6,15.9 L75.6,9.2 L76.9,8.2 L76.7,8 L76.7,8 Z M95.3,2.5 L94.3,3.4 L92.1,1.4 L88.8,3.8 L88.8,1.6 L88.5,1.6 L88.6,17.8 C88.3,17.8 87.4,17.6 86.7,17.4 L86.5,3.9 C86.5,2.9 85.8,1.5 84,1.5 C82.2,1.5 81,2.9 81,4.3 L81.3,4.3 C81.4,3.7 81.7,3.2 82.3,3.2 C82.9,3.2 83.4,3.6 83.4,4.9 L83.4,8.8 C81.6,8.9 80.5,9.9 80.5,11.2 C80.5,12 80.9,13.2 82.1,13.2 L82.1,13 C81.7,12.8 81.6,12.5 81.6,12.3 C81.6,11.7 82.1,11.5 82.9,11.5 L83.3,11.5 L83.3,17.7 C81.8,18.2 81.2,19.3 81.2,20.5 C81.2,22.2 82.5,23.4 84.5,23.4 C85.9,23.4 87.1,23.2 88.3,22.9 C89.3,22.7 90.6,22.4 91.2,22.4 C92,22.4 92.3,22.8 92.3,23.3 C92.3,24 92,24.3 91.6,24.4 L91.6,24.6 C93.2,24.3 94.2,23.3 94.2,21.8 C94.2,20.3 92.7,19.4 91.1,19.4 C90.3,19.4 88.6,19.7 87.4,19.9 C86,20.2 84.6,20.4 84.2,20.4 C83.5,20.4 82.7,20.1 82.7,19.1 C82.7,18.3 83.4,17.6 85.1,17.6 C86,17.6 87.1,17.7 88.2,18 C89.4,18.3 90.5,18.6 91.5,18.6 C93,18.6 94.3,18.1 94.3,16 L94.3,3.7 L95.5,2.7 L95.3,2.5 L95.3,2.5 Z M91.2,8.6 C90.9,8.9 90.5,9.2 90,9.2 C89.5,9.2 89,8.9 88.8,8.6 L88.8,4.2 L89.8,3.5 L91.2,4.8 L91.2,8.6 Z M91.2,11.6 C91,11.4 90.5,11.1 90,11.1 C89.5,11.1 89,11.4 88.8,11.6 L88.8,9 C89,9.2 89.5,9.5 90,9.5 C90.5,9.5 91,9.2 91.2,9 L91.2,11.6 Z M91.2,16.3 C91.2,17.1 90.7,17.9 89.6,17.9 L88.8,17.9 L88.8,12 C89,11.8 89.5,11.5 90,11.5 C90.5,11.5 90.9,11.8 91.2,12 L91.2,16.3 L91.2,16.3 Z M104.9,9.2 L101.7,6.9 L96.8,9.7 L96.8,16.2 L95.8,17 L95.9,17.2 L96.7,16.6 L99.9,19 L104.9,16 L104.9,9.2 L104.9,9.2 Z M99.5,15.5 L99.5,8.3 L102,10.1 L102,17.2 L99.5,15.5 L99.5,15.5 Z M114.4,7.1 L114.2,7.1 C113.9,7.3 113.6,7.5 113.3,7.5 C112.9,7.5 112.4,7.3 112.2,7 L112,7 L110.3,8.9 L108.6,7 L105.6,9 L105.7,9.2 L106.5,8.7 L107.5,9.8 L107.5,16.1 L106.2,17.1 L106.4,17.3 L107,16.8 L109.4,18.8 L112.5,16.7 L112.4,16.5 L111.5,17 L110.3,16 L110.3,9 C110.8,9.5 111.4,10 112.1,10 C113.5,10.1 114.3,8.7 114.4,7.1 L114.4,7.1 Z M126.4,16.7 L123,19 L118.4,12 L121.7,6.9 L121.9,6.9 C122.3,7.3 122.9,7.7 123.6,7.7 C124.3,7.7 124.8,7.3 125.1,6.9 L125.3,6.9 C125.2,8.9 123.8,10.1 122.8,10.1 C121.8,10.1 121.3,9.6 120.7,9.3 L120.4,9.8 L125.4,17.2 L126.4,16.6 L126.4,16.7 L126.4,16.7 Z M115.4,16.2 L114.1,17.2 L114.3,17.4 L114.9,16.9 L117.1,18.9 L120.1,16.9 L119.9,16.7 L119.1,17.2 L118.1,16.2 L118.1,0.8 L118,0.8 L114.4,3.2 L114.4,3.4 C114.8,3.6 115.4,3.7 115.4,4.9 L115.4,16.2 L115.4,16.2 Z M143,2.9 C143,0.9 141.1,0.4 139.6,0.4 L139.6,0.7 C140.5,0.7 141.2,1 141.2,1.7 C141.2,2.1 140.9,2.7 140,2.7 C139.3,2.7 137.8,2.3 136.7,1.9 C135.4,1.5 134.2,1.1 133.2,1.1 C131.2,1.1 129.8,2.6 129.8,4.3 C129.8,5.8 130.9,6.3 131.3,6.5 L131.4,6.3 C131.1,6.1 130.8,5.9 130.8,5.3 C130.8,4.9 131.2,4.2 132.2,4.2 C133.1,4.2 134.3,4.6 135.9,5.1 C137.3,5.5 138.8,5.8 139.6,5.9 L139.6,9 L138.1,10.3 L138.1,10.4 L139.6,11.7 L139.6,16 C138.8,16.5 137.9,16.6 137.1,16.6 C135.6,16.6 134.3,16.2 133.2,15 L137.3,13 L137.3,6 L132.3,8.2 C132.8,6.9 133.9,6 134.9,5.3 L134.8,5.1 C131.8,5.9 129.1,8.6 129.1,12 C129.1,16 132.4,19 136.1,19 C140.1,19 142.7,15.8 142.7,12.5 L142.5,12.5 C141.9,13.8 141,15 139.9,15.6 L139.9,11.5 L141.5,10.2 L141.5,10.1 L140,8.8 L140,5.8 C141.5,5.8 143,4.8 143,2.9 Z M134.3,13.9 L133.1,14.5 C132.4,13.6 132,12.4 132,10.7 C132,10 132.1,9.2 132.3,8.6 L134.4,7.7 L134.3,13.9 L134.3,13.9 Z M146.5,1.9 L146.4,1.9 L144.4,3.6 L144.4,3.7 L146.1,5.6 L146.3,5.6 L148.3,3.9 L148.3,3.8 L146.5,1.9 L146.5,1.9 Z M149.5,16.7 L148.7,17.2 L147.7,16.2 L147.7,9.3 L148.7,8.6 L148.5,8.4 L147.8,9 L146,6.9 L143.1,8.9 L143.3,9.2 L144,8.7 L144.9,9.8 L144.9,16.3 L143.6,17.3 L143.7,17.5 L144.4,17 L146.6,19 L149.6,17 L149.5,16.7 L149.5,16.7 Z M166.2,16.6 L165.5,17.1 L164.4,16.1 L164.4,9.3 L165.4,8.5 L165.2,8.3 L164.4,9 L162.1,6.9 L159.1,9 L156.8,6.9 L154,9 L152.2,6.9 L149.3,8.9 L149.4,9.2 L150.1,8.7 L151.1,9.8 L151.1,16.3 L150.3,17.1 L152.6,19 L154.8,17 L153.9,16.1 L153.9,9.3 L154.8,8.7 L156.3,10.1 L156.3,16.1 L155.5,16.9 L157.8,18.8 L160,16.8 L159.1,15.9 L159.1,9.3 L159.9,8.8 L161.5,10.2 L161.5,16.2 L160.8,16.9 L163.1,19 L166.2,16.9 L166.2,16.6 L166.2,16.6 Z M174.9,15.1 L172.4,17 L169.9,15 L169.9,13.8 L174.6,10.6 L174.6,10.5 L172.2,6.9 L167,9.7 L167,16.5 L170.5,19 L175,15.4 L174.9,15.1 L174.9,15.1 Z M169.9,13.4 L169.9,8.5 L170.1,8.4 L172.3,11.9 L169.9,13.4 L169.9,13.4 Z M184,12.5 L182.1,11 C183.4,9.9 183.9,8.4 183.9,7.4 L183.9,6.8 L183.7,6.8 C183.5,7.3 183.1,7.8 182.3,7.8 C181.5,7.8 181,7.4 180.5,6.8 L176,9.3 L176,12.9 L177.7,14.2 C176,15.7 175.7,16.7 175.7,17.5 C175.7,18.5 176.2,19.2 177,19.5 L177.1,19.3 C176.9,19.1 176.7,19 176.7,18.5 C176.7,18.2 177.1,17.7 177.9,17.7 C178.9,17.7 179.5,18.4 179.8,18.7 L184.1,16.1 L184.1,12.5 L184,12.5 L184,12.5 Z M182.9,9.5 C182.2,10.7 180.7,11.9 179.8,12.5 L178.7,11.6 L178.7,8.1 C179.1,9.1 180.2,9.9 181.3,9.9 C182,9.9 182.4,9.8 182.9,9.5 L182.9,9.5 Z M181.2,17.5 C180.7,16.4 179.5,15.6 178.3,15.6 C178,15.6 177.2,15.6 176.4,16.1 C176.9,15.3 178.2,13.9 179.9,12.9 L181.1,13.9 L181.2,17.5 L181.2,17.5 Z"></path>
        </g>
    </g>
</svg>