<?xml version="1.0" encoding="UTF-8"?>
<svg width="300px" height="117px" viewBox="0 0 300 117" version="1.1" xmlns="http://www.w3.org/2000/svg" xmlns:xlink="http://www.w3.org/1999/xlink">
    <title>The Huffington Post</title>
    <desc>We Save Homes on The Huffington Post</desc>
    <g stroke="none" stroke-width="1" fill="none" fill-rule="evenodd">
        <g id="The-Huffington-Post" fill="#8C8C8C" fill-rule="nonzero">
            <path d="M119.131946,22.4839855 C119.131946,26.8314629 119.213372,27.4547854 121.617346,27.6599296 L122.942892,27.7861721 C123.190117,27.9519706 123.10848,28.6961704 122.85873,28.8197829 C120.499573,28.738146 119.089865,28.6960652 117.432931,28.6960652 C115.775998,28.6960652 114.326839,28.738146 111.675746,28.8197829 C111.428521,28.6960652 111.344359,27.9913162 111.675746,27.7861721 L113.166986,27.6599296 C115.528773,27.4547854 115.736547,26.8314629 115.736547,22.4839855 L115.736547,3.97104331 C115.736547,2.68757751 115.736547,2.64549666 114.492532,2.64549666 L112.214906,2.64549666 C110.434361,2.64549666 108.156735,2.7269231 107.120494,3.68173749 C106.126334,4.59173579 105.713416,5.50173408 105.258417,6.53797491 C104.92703,6.78782994 104.345788,6.58005576 104.180095,6.2486691 C104.842868,4.38659166 105.463561,1.73549836 105.755497,0.0785650537 C105.879109,-0.00559663831 106.41564,-0.0449422293 106.541882,0.0785650537 C106.789107,1.4041117 108.156735,1.36203086 110.060893,1.36203086 L126.83537,1.36203086 C129.070915,1.36203086 129.444383,1.27786916 130.065075,0.202177539 C130.272744,0.118015847 130.727849,0.160096693 130.81201,0.325895226 C130.354381,2.02490938 130.065075,5.3782268 130.188688,6.62224181 C130.025625,6.95362847 129.32077,6.95362847 129.112996,6.70366825 C128.989279,5.67005747 128.700078,4.13673664 128.076755,3.68173749 C127.124676,2.97688332 125.551905,2.64549666 123.274279,2.64549666 L120.33388,2.64549666 C119.089865,2.64549666 119.131946,2.68757751 119.131946,4.05257495 L119.131946,22.4839855 L119.131946,22.4839855 Z" id="path3321"></path>
            <path d="M145.572141,15.3189219 C143.583821,15.3189219 143.499659,15.4030836 143.499659,16.6444686 L143.499659,22.483186 C143.499659,26.8332934 143.707328,27.411905 146.02714,27.6617601 L147.229074,27.7852674 C147.476299,27.9510659 147.394662,28.6952656 147.144912,28.8215082 C144.909367,28.7373465 143.499659,28.6952656 141.884806,28.6952656 C140.104261,28.6952656 138.697182,28.7794273 137.08233,28.8215082 C136.832475,28.6952656 136.750943,28.0351224 136.998168,27.7852674 L137.703022,27.6617601 C140.022729,27.2462117 140.104261,26.8332934 140.104261,22.483186 L140.104261,7.57341621 C140.104261,3.22593881 139.814955,2.52108464 137.660942,2.35539131 L136.58525,2.27396487 C136.335395,2.10837674 136.419662,1.36133652 136.666887,1.23772404 C138.697288,1.27980488 140.104366,1.36144172 141.884912,1.36144172 C143.499764,1.36144172 144.909473,1.31936088 146.690018,1.23772404 C146.939873,1.36144172 147.021405,2.10827154 146.77418,2.27396487 L145.985164,2.35539131 C143.583926,2.60524633 143.499764,3.22593881 143.499764,7.57341621 L143.499764,12.336442 C143.499764,13.6199078 143.583926,13.6619886 145.572246,13.6619886 L157.418004,13.6619886 C159.403694,13.6619886 159.487856,13.6199078 159.487856,12.336442 L159.487856,7.57341621 C159.487856,3.22593881 159.403694,2.60524633 156.960375,2.35539131 L156.173989,2.27396487 C155.926764,2.10837674 156.008401,1.36133652 156.258151,1.23772404 C158.162309,1.31936088 159.572017,1.36144172 161.268401,1.36144172 C162.883254,1.36144172 164.292962,1.31936088 166.15504,1.23772404 C166.404895,1.36144172 166.486426,2.10827154 166.239201,2.27396487 L165.368654,2.35539131 C162.967416,2.60524633 162.883254,3.22593881 162.883254,7.57341621 L162.883254,22.483186 C162.883254,26.8332934 162.967416,27.3698242 165.368654,27.6617601 L166.362814,27.7852674 C166.612669,27.9510659 166.528402,28.6952656 166.281387,28.8215082 C164.293067,28.7373465 162.883359,28.6952656 161.268507,28.6952656 C159.572122,28.6952656 158.080883,28.7373465 156.258256,28.8215082 C156.008401,28.6952656 155.926869,28.0351224 156.174094,27.7852674 L156.96048,27.6617601 C159.487961,27.2462117 159.487961,26.8332934 159.487961,22.483186 L159.487961,16.6444686 C159.487961,15.4030836 159.403799,15.3189219 157.418109,15.3189219 L145.572351,15.3189219 L145.572141,15.3189219 Z" id="path3325"></path>
            <path d="M176.739824,7.57421575 C176.739824,3.26618914 176.655662,2.64549666 174.212343,2.35619084 L173.54957,2.27202915 C173.302345,2.10623062 173.386507,1.36203086 173.633732,1.23841837 C175.414278,1.31984481 176.821356,1.36213606 178.52037,1.36213606 L186.307957,1.36213606 C188.95642,1.36213606 191.402369,1.36213606 191.899449,1.23841837 C192.146674,1.94064249 192.396529,4.92312245 192.559592,6.74574909 C192.396529,6.99560411 191.733756,7.07713575 191.525981,6.82991078 C190.905289,4.8810416 190.531821,3.43188247 188.377808,2.89272163 C187.507261,2.68757751 186.181714,2.64549666 184.361717,2.64549666 L181.379237,2.64549666 C180.135222,2.64549666 180.135222,2.7269231 180.135222,4.30242997 L180.135222,12.5844665 C180.135222,13.7443198 180.261465,13.7443198 181.50285,13.7443198 L183.904088,13.7443198 C185.645183,13.7443198 186.928649,13.6628934 187.425729,13.4970948 C187.922809,13.3312963 188.212115,13.0815465 188.419889,12.0479357 L188.751276,10.3489215 C188.95642,10.1016966 189.661274,10.1016966 189.826967,10.3910024 C189.826967,11.3851624 189.661169,13.0000148 189.661169,14.5727864 C189.661169,16.0640264 189.826967,17.6394281 189.826967,18.5494264 C189.661169,18.8387322 188.95642,18.8387322 188.751276,18.5915072 L188.377808,16.9766548 C188.21201,16.2297198 187.922809,15.6090273 187.094342,15.4012531 C186.513101,15.2354546 185.518941,15.1933737 183.904088,15.1933737 L181.50285,15.1933737 C180.261465,15.1933737 180.135222,15.2354546 180.135222,16.3137762 L180.135222,22.1524936 C180.135222,24.3485878 180.261465,25.7556661 180.924238,26.4605202 C181.418688,26.9576002 182.289236,27.4125994 185.934489,27.4125994 C189.122113,27.4125994 190.324047,27.2470113 191.236676,26.7919069 C191.980981,26.3763585 193.098753,24.9271994 194.177075,22.7731861 C194.466381,22.568042 195.047622,22.6917597 195.213316,23.0624919 C194.92138,24.5142811 193.885139,27.7019052 193.345978,28.8196777 C189.619193,28.7380408 185.934489,28.69596 182.247155,28.69596 L178.52037,28.69596 C176.739824,28.69596 175.332746,28.7380408 172.889427,28.8196777 C172.639572,28.69596 172.55541,28.0332919 172.805265,27.7860669 L174.172893,27.6598244 C176.53205,27.4546802 176.739824,26.8313577 176.739824,22.4838803 L176.739824,7.57411055 L176.739824,7.57421575 Z" id="path3329"></path>
            <path d="M9.1376112,58.8134319 C7.14929123,58.8134319 7.06775959,58.8948583 7.06775959,60.1389785 L7.06775959,65.9776959 C7.06775959,70.3278034 7.27290372,70.906415 9.59261035,71.15627 L10.7945445,71.2799877 C11.0417695,71.4455758 10.9602378,72.189986 10.7103828,72.3162285 C8.47483788,72.2320668 7.06775959,72.189986 5.45027707,72.189986 C3.66973128,72.189986 2.26265299,72.2741477 0.647800523,72.3162285 C0.3979455,72.189986 0.316413861,71.5298427 0.563638831,71.2799877 L1.268493,71.15627 C3.58819964,70.7407217 3.66973128,70.3278034 3.66973128,65.9776959 L3.66973128,51.0679262 C3.66973128,46.7204487 3.38042546,46.0155946 1.22641216,45.8499012 L0.15072053,45.7684748 C-0.0991344934,45.6026763 -0.0149728014,44.8558465 0.232252169,44.732234 C2.26265299,44.7743148 3.66973128,44.8557413 5.45027707,44.8557413 C7.06775959,44.8557413 8.47483788,44.8136604 10.2553837,44.732234 C10.5052387,44.8557413 10.5867703,45.6027815 10.3395454,45.7684748 L9.5505295,45.8499012 C7.14929123,46.0997563 7.06775959,46.7204487 7.06775959,51.0679262 L7.06775959,55.8309519 C7.06775959,57.1144177 7.14929123,57.1564986 9.1376112,57.1564986 L20.9833694,57.1564986 C22.9690593,57.1564986 23.053221,57.1144177 23.053221,55.8309519 L23.053221,51.0679262 C23.053221,46.7204487 22.9690593,46.0997563 20.5283702,45.8499012 L19.7393543,45.7684748 C19.4921294,45.6026763 19.573661,44.8558465 19.823516,44.732234 C21.7276743,44.8136604 23.1373827,44.8557413 24.8337668,44.8557413 C26.4486192,44.8557413 27.8583276,44.8136604 29.720405,44.732234 C29.97026,44.8557413 30.0517917,45.6027815 29.8045667,45.7684748 L28.9340192,45.8499012 C26.5327809,46.0997563 26.4486192,46.7204487 26.4486192,51.0679262 L26.4486192,65.9776959 C26.4486192,70.3278034 26.5327809,70.8643341 28.9340192,71.15627 L29.9281792,71.2799877 C30.1780342,71.4455758 30.0938725,72.189986 29.8466475,72.3162285 C27.8583276,72.2320668 26.4486192,72.189986 24.8337668,72.189986 C23.1373827,72.189986 21.6461427,72.2320668 19.823516,72.3162285 C19.573661,72.189986 19.4921294,71.5298427 19.7393543,71.2799877 L20.5283702,71.15627 C23.053221,70.7407217 23.053221,70.3278034 23.053221,65.9776959 L23.053221,60.1389785 C23.053221,58.8949635 22.9690593,58.8134319 20.9833694,58.8134319 L9.1376112,58.8134319 L9.1376112,58.8134319 Z" id="path3333"></path>
            <path d="M59.9525998,55.2515618 C59.9525998,52.6846302 59.8684381,47.9216044 59.166214,46.6775894 C58.8769082,46.1805094 58.1299732,45.8912036 57.0963624,45.809672 L56.0601215,45.7255103 C55.8102665,45.4362045 55.8944282,44.8970436 56.1416532,44.7313503 C57.7170549,44.815512 59.2477456,44.8575928 60.8625981,44.8575928 C62.6036931,44.8575928 63.7214656,44.815512 65.2127055,44.7313503 C65.5440922,44.9390193 65.5020114,45.4782853 65.2942372,45.7255103 L64.3000772,45.809672 C63.2664664,45.8913088 62.4800806,46.2646711 62.2302256,46.8038319 C61.651614,48.1688294 61.651614,52.9318551 61.651614,55.2515618 L61.651614,59.9330559 C61.651614,63.5362283 61.0703723,67.3445449 58.7506656,69.8299449 C56.9701198,71.776184 53.9061082,72.8545057 50.8420966,72.8545057 C47.9832292,72.8545057 45.1269917,72.3153448 43.0965909,70.5768799 C40.9004968,68.7542532 39.866886,65.7296924 39.866886,60.8009733 L39.866886,51.0276969 C39.866886,46.7196703 39.7827243,46.0174461 37.381486,45.809672 L36.3452452,45.7255103 C36.0953902,45.5597117 36.1795519,44.8575928 36.4294069,44.7313503 C38.4992585,44.815512 39.9063368,44.8575928 41.5632701,44.8575928 C43.2622843,44.8575928 44.6299117,44.815512 46.6576825,44.7313503 C46.9075375,44.8575928 46.9890692,45.5598169 46.7418442,45.7255103 L45.7476842,45.809672 C43.3438159,46.0175513 43.2622843,46.7196703 43.2622843,51.0276969 L43.2622843,59.9725067 C43.2622843,66.6423208 45.3321359,71.031879 51.6705633,71.031879 C57.674974,71.031879 59.9525998,66.3109341 59.9525998,60.0145875 L59.9525998,55.2515618 L59.9525998,55.2515618 Z" id="path3337"></path>
            <path d="M78.0231671,56.5358061 C78.0231671,57.6535786 78.1467796,57.6535786 79.3907946,57.6535786 L82.2075812,57.6535786 C83.9039653,57.6535786 85.229512,57.5721521 85.726592,57.4063536 C86.1815911,57.240555 86.5129778,57.0328861 86.7628328,55.9545644 L87.1363003,54.2976311 C87.3414444,54.0504061 88.0462986,54.0504061 88.2119919,54.2976311 C88.2119919,55.2917911 88.0462986,56.9487244 88.0462986,58.4820452 C88.0462986,59.9732852 88.2119919,61.5460568 88.2119919,62.500766 C88.0462986,62.747991 87.4256061,62.747991 87.1363003,62.500766 L86.7207519,60.8832835 C86.5129778,60.1389785 86.1815911,59.5577368 85.3952053,59.3105119 C84.8165937,59.1447133 83.7803528,59.1028429 82.2075812,59.1028429 L79.3907946,59.1028429 C78.1467796,59.1028429 78.0231671,59.1449237 78.0231671,60.2232454 L78.0231671,65.9778011 C78.0231671,70.3279086 78.1073288,70.948601 80.5506479,71.1563752 L81.9577262,71.2800929 C82.2075812,71.445681 82.1234195,72.1900912 81.8761946,72.3163337 C79.4302454,72.232172 78.0231671,72.1900912 76.3662338,72.1900912 C74.5436071,72.1900912 73.1365288,72.232172 71.1902897,72.3163337 C70.9404347,72.1900912 70.8589031,71.5299479 71.106128,71.2800929 L72.1423689,71.1563752 C74.5436071,70.8644393 74.6277688,70.3279086 74.6277688,65.9778011 L74.6277688,51.0680314 C74.6277688,46.720554 74.5436071,46.1393123 72.1423689,45.8500065 L71.4795955,45.76858 C71.2323706,45.6027815 71.3139022,44.8559517 71.5611272,44.7323392 C73.3022222,44.8137656 74.7093005,44.8558465 76.3662338,44.8558465 L83.988127,44.8558465 C86.6392203,44.8558465 89.0404586,44.8558465 89.5796194,44.7323392 C89.5796194,46.6364975 89.6190702,48.6248174 89.7032319,50.2002191 C89.5796194,50.4474441 88.9983777,50.5710566 88.7090719,50.3237264 C88.3776853,48.4590189 87.8806053,46.9283281 85.8107537,46.3891673 C84.8981253,46.1392071 83.5304978,46.1392071 81.7920329,46.1392071 L79.2671821,46.1392071 C78.0231671,46.1392071 78.0231671,46.2233688 78.0231671,47.7961404 L78.0231671,56.5358061 L78.0231671,56.5358061 Z" id="path3341"></path>
            <path d="M102.906097,56.5358061 C102.906097,57.6535786 103.02971,57.6535786 104.273725,57.6535786 L107.090511,57.6535786 C108.786896,57.6535786 110.112442,57.5721521 110.609522,57.4063536 C111.064521,57.240555 111.395908,57.0328861 111.645763,55.9545644 L112.019231,54.2976311 C112.224375,54.0504061 112.929229,54.0504061 113.094922,54.2976311 C113.094922,55.2917911 112.929229,56.9487244 112.929229,58.4820452 C112.929229,59.9732852 113.094922,61.5460568 113.094922,62.500766 C112.929229,62.747991 112.308536,62.747991 112.019231,62.500766 L111.603682,60.8832835 C111.395908,60.1389785 111.064521,59.5577368 110.278136,59.3105119 C109.699524,59.1447133 108.663283,59.1028429 107.090511,59.1028429 L104.273725,59.1028429 C103.02971,59.1028429 102.906097,59.1449237 102.906097,60.2232454 L102.906097,65.9778011 C102.906097,70.3279086 102.990259,70.948601 105.433578,71.1563752 L106.840656,71.2800929 C107.090511,71.445681 107.00635,72.1900912 106.759125,72.3163337 C104.313176,72.232172 102.906097,72.1900912 101.249164,72.1900912 C99.4265374,72.1900912 98.0194591,72.232172 96.07322,72.3163337 C95.8233649,72.1900912 95.7418333,71.5299479 95.9890583,71.2800929 L97.0252991,71.1563752 C99.4265374,70.8644393 99.5106991,70.3279086 99.5106991,65.9778011 L99.5106991,51.0680314 C99.5106991,46.720554 99.4265374,46.1393123 97.0252991,45.8500065 L96.3625258,45.76858 C96.1153008,45.6027815 96.1968325,44.8559517 96.4440574,44.7323392 C98.1851524,44.8137656 99.5922307,44.8558465 101.249164,44.8558465 L108.871057,44.8558465 C111.522151,44.8558465 113.923389,44.8558465 114.46255,44.7323392 C114.46255,46.6364975 114.502,48.6248174 114.586162,50.2002191 C114.46255,50.4474441 113.881308,50.5710566 113.592002,50.3237264 C113.260616,48.4590189 112.763536,46.9283281 110.693684,46.3891673 C109.781056,46.1393123 108.413428,46.1393123 106.674963,46.1393123 L104.147482,46.1393123 C102.906097,46.1393123 102.906097,46.223474 102.906097,47.7962456 L102.906097,56.5359113 L102.906097,56.5358061 Z" id="path3345"></path>
            <path d="M124.611671,51.1518143 C124.611671,46.7622561 124.52751,46.0574019 122.08419,45.8496277 L121.05058,45.7682013 C120.800725,45.6024028 120.884992,44.8555729 121.132006,44.7319605 C123.204488,44.8161221 124.611566,44.8554677 126.350031,44.8554677 C128.006964,44.8554677 129.416673,44.8161221 131.486524,44.7319605 C131.736379,44.8554677 131.817911,45.602508 131.568161,45.7682013 L130.53455,45.8496277 C128.091231,46.0572967 128.007069,46.7622561 128.007069,51.1518143 L128.007069,65.8958907 C128.007069,70.285449 128.091231,70.8640606 130.53455,71.1559965 L131.568161,71.2797142 C131.818016,71.4455127 131.736484,72.1923425 131.486524,72.315955 C129.416673,72.2317933 128.006964,72.1922373 126.350031,72.1922373 C124.611566,72.1922373 123.204488,72.2317933 121.132006,72.315955 C120.884781,72.1922373 120.800619,71.5295692 121.05058,71.2797142 L122.08419,71.1559965 C124.52751,70.8640606 124.611671,70.285449 124.611671,65.8958907 L124.611671,51.1518143 Z" id="path3349"></path>
            <path d="M164.29574,65.1502813 C164.29574,66.3942963 164.29574,71.3203853 164.419247,72.398707 C164.33782,72.645932 164.08786,72.8537061 163.632861,72.8537061 C163.135781,72.148852 161.933847,70.6996928 158.330674,66.5994404 L148.723091,55.6663106 C147.605319,54.3828448 144.788532,50.9848165 143.917985,50.0748182 L143.836348,50.0748182 C143.67076,50.5718982 143.628679,51.5239773 143.628679,52.7679923 L143.628679,61.7969639 C143.628679,63.743203 143.67076,69.1269212 144.372984,70.3683062 C144.622839,70.8259354 145.451305,71.0731603 146.487546,71.154692 L147.771012,71.2809345 C148.018237,71.6123212 147.978681,72.1094012 147.68685,72.3145453 C145.824773,72.2331189 144.372984,72.191038 142.842293,72.191038 C141.101198,72.191038 139.983426,72.2331189 138.534266,72.3145453 C138.244961,72.1094012 138.20288,71.5281595 138.45284,71.2809345 L139.570612,71.154692 C140.522692,71.0309743 141.185465,70.7838545 141.393239,70.3262253 C141.971851,68.8376154 141.92977,63.7852838 141.92977,61.7969639 L141.92977,49.8249632 C141.92977,48.6677399 141.887689,47.7971924 141.019772,46.8451133 C140.43853,46.2638716 139.447,45.9745658 138.45284,45.8509533 L137.747986,45.7667916 C137.498131,45.5195666 137.498131,44.8988741 137.829623,44.7331808 C139.570718,44.8566881 141.764182,44.8566881 142.511117,44.8566881 C143.17389,44.8566881 143.878744,44.8146072 144.415275,44.7331808 C145.243742,46.8451133 150.13038,52.3129932 151.498007,53.843684 L155.514098,58.3594847 C158.372966,61.5471088 160.403366,63.8668155 162.349606,65.8551354 L162.431242,65.8551354 C162.596831,65.6474665 162.596831,64.9845879 162.596831,64.1140404 L162.596831,55.2507622 C162.596831,53.3045231 162.55475,47.9208049 161.768364,46.6794199 C161.521139,46.3059524 160.858366,46.0587274 159.201432,45.8509533 L158.496578,45.7667916 C158.207272,45.5195666 158.249353,44.8567933 158.58074,44.7331808 C160.484898,44.8146072 161.894606,44.8566881 163.467378,44.8566881 C165.247924,44.8566881 166.326246,44.8146072 167.733324,44.7331808 C168.06471,44.9383249 168.06471,45.5195666 167.817486,45.7667916 L167.236244,45.8509533 C165.910697,46.0586222 165.082231,46.3874841 164.916537,46.7215008 C164.211683,48.2101107 164.295845,53.346604 164.295845,55.2507622 L164.295845,65.1502813 L164.29574,65.1502813 Z" id="path3353"></path>
            <path d="M197.894391,67.9667944 C197.894391,69.6237277 198.144247,70.6178877 198.888551,70.9071935 C199.012269,71.0309112 199.012269,71.280661 198.846471,71.4042735 C198.349391,71.4042735 197.605086,71.570072 196.81607,71.7751109 C194.622606,72.3563526 191.640126,72.8534326 189.401951,72.8534326 C184.475862,72.8534326 179.960061,71.4884352 176.769807,68.2561002 C174.287037,65.7707002 172.96149,62.4989144 172.96149,58.8536612 C172.96149,55.3346504 174.121344,51.7735588 176.688275,49.0383038 C179.462981,46.1399856 183.563233,44.1937464 189.817499,44.1937464 C192.179287,44.1937464 194.372751,44.6487456 195.077605,44.8144389 C195.863991,44.9802374 197.147456,45.2694381 197.644536,45.1879064 C197.644536,46.5555339 197.894391,48.7095472 198.267859,51.1923171 C198.144352,51.5237038 197.397311,51.5657846 197.147456,51.3185597 C195.990233,46.8448397 192.881511,45.4351314 188.657646,45.4351314 C180.622834,45.4351314 177.101193,51.1528663 177.101193,57.3650512 C177.101193,65.3157011 181.201446,71.5699668 189.528193,71.5699668 C192.095125,71.5699668 193.628446,71.030806 194.083445,70.3259518 C194.288589,70.036646 194.498993,69.292341 194.498993,67.9667944 L194.498993,66.3098611 C194.498993,62.8303011 194.372751,62.5830761 191.805819,62.2911403 L189.983192,62.0859961 C189.651806,61.9201976 189.693887,61.1733678 189.983192,61.0497553 C191.185127,61.133917 193.462752,61.173473 195.906072,61.173473 C197.520924,61.173473 198.930632,61.133917 200.29563,61.0497553 C200.587566,61.2155538 200.627016,61.8361411 200.337711,62.0859961 L199.674937,62.1674226 C197.933842,62.3750916 197.894391,63.5350501 197.894391,65.6469825 L197.894391,67.9666892 L197.894391,67.9667944 Z" id="path3357"></path>
            <path d="M219.795389,65.9784744 C219.795389,70.3259518 219.879551,70.9492743 222.280789,71.1544185 L223.606335,71.280661 C223.85356,71.4464595 223.771924,72.1906593 223.522174,72.3142718 C221.163016,72.2328453 219.755938,72.1907645 218.096375,72.1907645 C216.442071,72.1907645 214.992912,72.2328453 212.339189,72.3142718 C212.091964,72.1907645 212.010432,71.4858051 212.339189,71.280661 L213.833059,71.1544185 C216.192216,70.9492743 216.399991,70.3259518 216.399991,65.9784744 L216.399991,47.4655322 C216.399991,46.1820664 216.399991,46.1399856 215.158606,46.1399856 L212.87835,46.1399856 C211.097804,46.1399856 208.820178,46.221412 207.783937,47.1762264 C206.789777,48.0862247 206.376859,48.998853 205.92186,50.0324638 C205.590473,50.2823188 205.009232,50.0745447 204.843538,49.743158 C205.508942,47.8810806 206.129634,45.2299873 206.41894,43.573054 C206.542447,43.4888923 207.081713,43.4493363 207.205326,43.573054 C207.452551,44.8986006 208.820178,44.8565198 210.726967,44.8565198 L227.498814,44.8565198 C229.734359,44.8565198 230.107826,44.7723581 230.728519,43.6966664 C230.936188,43.6125047 231.391292,43.6545856 231.475454,43.8203841 C231.017824,45.5193983 230.728519,48.8727157 230.852131,50.1167307 C230.689068,50.4481174 229.984214,50.4481174 229.776439,50.1981571 C229.652722,49.1645464 229.363521,47.6312255 228.740199,47.1762264 C227.78812,46.4713722 226.215348,46.1399856 223.937722,46.1399856 L220.997323,46.1399856 C219.755938,46.1399856 219.795389,46.1820664 219.795389,47.5470638 L219.795389,65.9784744 L219.795389,65.9784744 Z" id="path3361"></path>
            <path d="M235.790297,58.8134319 C235.790297,50.5313954 242.002482,44.1929679 250.534374,44.1929679 C260.102506,44.1929679 264.904983,51.110007 264.904983,58.4005136 C264.904983,66.7640817 258.529735,72.8526541 250.534374,72.8526541 C241.339709,72.8526541 235.790297,66.2696318 235.790297,58.8134319 M260.765279,59.6839794 C260.765279,52.8484719 257.740719,45.4764337 249.82952,45.4764337 C245.524123,45.4764337 239.932631,48.4168329 239.932631,57.4878852 C239.932631,63.6185385 242.915111,71.5691883 251.073535,71.5691883 C256.041704,71.5691883 260.765279,67.8424034 260.765279,59.6839794" id="path3365"></path>
            <path d="M296.302301,65.1502813 C296.302301,66.3942963 296.302301,71.3203853 296.425809,72.398707 C296.344382,72.645932 296.094422,72.8537061 295.639423,72.8537061 C295.142343,72.148852 293.940409,70.6996928 290.337236,66.5994404 L280.729758,55.6663106 C279.611986,54.3828448 276.795199,50.9848165 275.924652,50.0748182 L275.843015,50.0748182 C275.677427,50.5718982 275.635346,51.5239773 275.635346,52.7679923 L275.635346,61.7969639 C275.635346,63.743203 275.677427,69.1269212 276.379651,70.3683062 C276.629506,70.8259354 277.457973,71.0731603 278.494213,71.154692 L279.777679,71.2809345 C280.024904,71.6123212 279.982823,72.1094012 279.693518,72.3145453 C277.83144,72.2331189 276.379651,72.191038 274.84896,72.191038 C273.107865,72.191038 271.990093,72.2331189 270.540933,72.3145453 C270.251628,72.1094012 270.209547,71.5281595 270.459507,71.2809345 L271.57728,71.154692 C272.529359,71.0309743 273.192132,70.7838545 273.399906,70.3262253 C273.978518,68.8376154 273.936437,63.7852838 273.936437,61.7969639 L273.936437,49.8249632 C273.936437,48.6677399 273.897091,47.7971924 273.026439,46.8451133 C272.445197,46.2638716 271.453667,45.9745658 270.459507,45.8509533 L269.754653,45.7667916 C269.504798,45.5195666 269.504798,44.8988741 269.836079,44.7331808 C271.577174,44.8566881 273.770638,44.8566881 274.517573,44.8566881 C275.180347,44.8566881 275.885201,44.8146072 276.421732,44.7331808 C277.250198,46.8451133 282.136837,52.3129932 283.504464,53.843684 L287.523185,58.3594847 C290.379422,61.5471088 292.409823,63.8668155 294.356062,65.8551354 L294.437489,65.8551354 C294.603287,65.6474665 294.603287,64.9845879 294.603287,64.1140404 L294.603287,55.2507622 C294.603287,53.3045231 294.563731,47.9208049 293.774821,46.6794199 C293.527596,46.3059524 292.864822,46.0587274 291.207889,45.8509533 L290.503035,45.7667916 C290.213729,45.5195666 290.25581,44.8567933 290.587197,44.7331808 C292.491355,44.8146072 293.901063,44.8566881 295.473835,44.8566881 C297.254381,44.8566881 298.330072,44.8146072 299.739781,44.7331808 C300.071167,44.9383249 300.071167,45.5195666 299.823942,45.7667916 L299.242701,45.8509533 C297.917154,46.0586222 297.088687,46.3874841 296.922994,46.7215008 C296.21814,48.2101107 296.302301,53.346604 296.302301,55.2507622 L296.302301,65.1502813 L296.302301,65.1502813 Z" id="path3369"></path>
            <path d="M102.631783,109.472984 C102.631783,113.820462 102.715945,114.359623 105.364408,114.648928 L106.48481,114.775171 C106.732035,114.98284 106.650504,115.685169 106.400649,115.808782 C104.038861,115.727145 102.673864,115.685064 101.01693,115.685064 C99.2784654,115.685064 97.7872254,115.727145 95.9645988,115.808782 C95.7147438,115.685064 95.6332121,115.022396 95.8804371,114.775171 L96.7509846,114.648928 C99.1522229,114.320172 99.2363846,113.820462 99.2363846,109.472984 L99.2363846,94.1897471 C99.2363846,90.6707363 99.1522229,89.9658822 97.2901454,89.758108 L95.7989055,89.5950447 C95.5069696,89.3451897 95.5490504,88.7244972 95.8804371,88.5588039 C98.0765312,88.266868 100.643463,88.2274172 104.080942,88.2274172 C107.518421,88.2274172 110.087983,88.6824164 112.034222,89.8817205 C113.93838,91.0836546 115.348088,93.2376679 115.348088,96.0965354 C115.348088,99.904852 112.986301,101.81164 111.205755,102.682188 C109.383129,103.550105 107.187034,103.923573 105.49065,103.923573 C105.198714,103.79733 105.198714,103.176638 105.448569,103.095106 C109.922289,102.266639 111.537142,99.7391586 111.537142,96.1359862 C111.537142,92.1198955 109.175354,89.510883 104.867328,89.510883 C102.673864,89.510883 102.631783,89.6766815 102.631783,91.002123 L102.631783,109.472984 L102.631783,109.472984 Z" id="path3373"></path>
            <path d="M121.285959,102.307921 C121.285959,94.0258843 127.498144,87.6874568 136.030035,87.6874568 C145.598168,87.6874568 150.400644,94.6044959 150.400644,101.895002 C150.400644,110.258571 144.022766,116.347143 136.030035,116.347143 C126.83537,116.347143 121.285959,109.764121 121.285959,102.307921 M146.260941,103.178468 C146.260941,96.3429608 143.23638,88.9709226 135.325181,88.9709226 C131.019785,88.9709226 125.428292,91.9139518 125.428292,100.982374 C125.428292,107.113027 128.410772,115.063677 136.569196,115.063677 C141.537366,115.063677 146.260941,111.336892 146.260941,103.178468" id="path3377"></path>
            <path d="M164.061938,116.348048 C160.582378,116.348048 158.388914,115.269621 157.599898,114.814622 C157.102818,113.904623 156.566288,110.964224 156.482126,109.017985 C156.689795,108.728679 157.310593,108.644518 157.476286,108.894478 C158.096978,111.00641 159.795993,115.064582 164.601099,115.064582 C168.080659,115.064582 169.777043,112.786956 169.777043,110.301556 C169.777043,108.47893 169.403576,106.448529 166.381645,104.50229 L162.447086,101.935358 C160.374604,100.567731 157.973366,98.2085731 157.973366,94.8131748 C157.973366,90.8759857 161.037378,87.6883616 166.423726,87.6883616 C167.707192,87.6883616 169.198432,87.9355865 170.274123,88.2275224 C170.813284,88.3933209 171.391896,88.4747474 171.723282,88.4747474 C172.09675,89.4689074 172.470217,91.788614 172.470217,93.527079 C172.304629,93.776934 171.641751,93.9005465 171.433977,93.6533215 C170.894816,91.6650015 169.777043,88.9718274 165.800403,88.9718274 C161.742232,88.9718274 160.871684,91.6650015 160.871684,93.5691598 C160.871684,95.9703981 162.860004,97.7114931 164.393325,98.6635722 L167.707192,100.733424 C170.316204,102.348276 172.883136,104.752145 172.883136,108.686704 C172.883136,113.241955 169.445657,116.348048 164.061938,116.348048" id="path3381"></path>
            <path d="M193.487475,109.472984 C193.487475,113.820462 193.571637,114.443784 195.972875,114.648928 L197.298421,114.775171 C197.545646,114.940969 197.46422,115.685169 197.216995,115.808782 C194.855208,115.727145 193.445499,115.685064 191.788566,115.685064 C190.134263,115.685064 188.682473,115.727145 186.03401,115.808782 C185.784155,115.685064 185.702624,114.982945 186.03401,114.775171 L187.52262,114.648928 C189.884408,114.443784 190.092182,113.820462 190.092182,109.472984 L190.092182,90.9600421 C190.092182,89.6765763 190.092182,89.6344955 188.848167,89.6344955 L186.570541,89.6344955 C184.789995,89.6344955 182.512369,89.7159219 181.476129,90.6707363 C180.481969,91.5807346 180.06905,92.493363 179.614051,93.5269738 C179.282665,93.7768288 178.701423,93.5690546 178.535729,93.2376679 C179.198503,91.3755905 179.819195,88.7244972 180.111131,87.0675639 C180.234849,86.9834022 180.773904,86.9440566 180.897517,87.0675639 C181.144742,88.3931105 182.512369,88.3510297 184.416528,88.3510297 L201.191005,88.3510297 C203.42918,88.3510297 203.800017,88.266868 204.42334,87.1911764 C204.628484,87.1070147 205.086113,87.1490955 205.167645,87.3148941 C204.712646,89.0139082 204.42334,92.3672256 204.546952,93.6112406 C204.381364,93.9426273 203.676405,93.9426273 203.468631,93.6926671 C203.344913,92.6590563 203.055712,91.1257355 202.43502,90.6707363 C201.480311,89.9658822 199.907539,89.6344955 197.629913,89.6344955 L194.689514,89.6344955 C193.445499,89.6344955 193.48758,89.6765763 193.48758,91.0442038 L193.48758,109.472984 L193.487475,109.472984 Z" id="path3385"></path>
        </g>
    </g>
</svg>