<?xml version="1.0" encoding="UTF-8"?>
<svg width="1956px" height="491px" viewBox="0 0 1956 491" version="1.1" xmlns="http://www.w3.org/2000/svg" xmlns:xlink="http://www.w3.org/1999/xlink">
    <title>Forbes</title>
    <desc>We Save Homes on Forbes</desc>
    <g stroke="none" stroke-width="1" fill="none" fill-rule="evenodd">
        <g id="forbes-seeklogo.com" transform="translate(0.969698, 0.787862)" fill="#8C8C8C" fill-rule="nonzero">
            <path d="M1191.14747,139.532017 C1159.70892,139.532017 1135.01461,146.27626 1110.30734,159.738806 C1110.30734,87.8737115 1110.30734,22.7528598 1112.56407,0.302313275 L962.076666,27.2403752 L962.076666,40.715891 L977.79594,42.9596487 C997.989759,47.447164 1004.75994,58.6659525 1009.20855,85.6299538 C1013.73497,139.532017 1011.46527,427.005364 1009.20855,474.176154 C1049.63509,483.164155 1092.31837,489.908398 1135.00164,489.908398 C1254.03753,489.908398 1325.90262,415.786576 1325.90262,298.994449 C1325.90262,206.922566 1267.51304,139.532017 1191.14747,139.532017 L1191.14747,139.532017 Z M1139.48916,465.188154 C1130.50116,465.188154 1119.25643,465.188154 1112.53813,462.957366 C1110.2814,431.518819 1108.05061,298.994449 1110.2814,182.215292 C1123.75692,177.714807 1132.73195,175.471049 1143.97668,175.471049 C1193.41716,175.471049 1220.36819,233.860628 1220.36819,305.712752 C1220.35522,395.579787 1186.65995,465.188154 1139.48916,465.188154 L1139.48916,465.188154 Z M396.079063,9.27734401 L0.788619869,9.27734401 L0.788619869,29.4841329 L23.2521361,31.7278906 C52.4339557,36.2154059 63.6786835,54.1784371 68.1532292,96.8487422 C74.9104416,177.701837 72.6537143,323.701723 68.1532292,393.29712 C63.6657138,435.980395 52.4469254,456.200154 23.2521361,458.417972 L0.788619869,462.931427 L0.788619869,480.894458 L254.579662,480.894458 L254.579662,462.931427 L227.628631,458.417972 C198.433842,456.187184 187.202083,435.980395 182.714568,393.29712 C180.457841,364.089361 178.214083,316.918571 178.214083,258.541962 L232.116146,260.78572 C265.811421,260.78572 281.517724,287.736751 288.261967,325.906571 L308.481726,325.906571 L308.481726,166.496018 L288.261967,166.496018 C281.504755,204.678808 265.811421,231.61687 232.116146,231.61687 L178.227053,233.873597 C178.227053,157.508018 180.47081,85.6429235 182.727538,42.9726184 L261.323905,42.9726184 C321.983181,42.9726184 353.421728,81.1424384 375.872274,148.532987 L398.335791,141.788744 L396.079063,9.27734401 L396.079063,9.27734401 Z"></path>
            <path d="M524.102948,135.044502 C636.40756,135.044502 692.553381,211.410081 692.553381,312.469965 C692.553381,409.042333 629.663317,489.921367 517.358706,489.921367 C405.067064,489.921367 348.921243,413.542818 348.921243,312.469965 C348.921243,215.897596 411.798337,135.044502 524.102948,135.044502 Z M517.358706,157.508018 C467.944158,157.508018 454.468642,224.885597 454.468642,312.469965 C454.468642,397.810575 476.932158,467.431912 521.859191,467.431912 C573.478587,467.431912 586.980042,400.054333 586.980042,312.469965 C586.980042,227.129355 564.542465,157.508018 517.358706,157.508018 Z M1355.08444,314.726692 C1355.08444,222.641839 1413.47402,135.044502 1528.02239,135.044502 C1622.32506,135.044502 1667.26506,204.678808 1667.26506,296.750691 L1458.38808,296.750691 C1456.13136,379.847544 1496.5579,440.49385 1577.42397,440.49385 C1613.363,440.49385 1631.32603,431.531789 1653.80252,415.799546 L1662.76458,427.018334 C1640.30106,458.456881 1590.89948,489.921367 1528.02239,489.921367 C1426.94954,489.908398 1355.08444,418.043303 1355.08444,314.726692 L1355.08444,314.726692 Z M1458.38808,272.056387 L1563.94845,269.79966 C1563.94845,224.885597 1557.20421,157.508018 1519.03439,157.508018 C1480.86457,157.508018 1460.61887,220.385112 1458.38808,272.056387 L1458.38808,272.056387 Z M1934.57053,153.020502 C1907.6195,141.775775 1871.69344,135.044502 1831.26689,135.044502 C1748.18301,135.044502 1696.49876,184.44608 1696.49876,242.848628 C1696.49876,301.251176 1734.64264,325.945481 1788.60956,343.921481 C1844.74241,364.115301 1860.47465,379.847544 1860.47465,406.798575 C1860.47465,433.749607 1840.25489,458.443911 1804.31586,458.443911 C1761.65852,458.443911 1730.19404,433.749607 1705.49973,366.359058 L1689.76749,370.872513 L1692.02422,469.688639 C1718.97525,480.907427 1768.37683,489.908398 1811.0601,489.908398 C1898.65744,489.908398 1954.81623,444.968395 1954.81623,375.360028 C1954.81623,328.189238 1930.09599,301.251176 1871.70641,278.77469 C1808.80337,254.080386 1786.3658,238.361113 1786.3658,209.153354 C1786.3658,179.958564 1806.6115,159.738806 1833.56253,159.738806 C1873.96313,159.738806 1900.91417,184.44608 1921.15986,245.092386 L1936.86617,240.60487 L1934.57053,153.020502 L1934.57053,153.020502 Z M984.514243,144.032502 C946.344423,121.594925 878.953875,132.800744 843.027812,213.666808 L845.2586,135.057471 L694.797138,164.252261 L694.797138,177.727776 L710.516412,179.971534 C730.74914,182.228261 739.711201,193.44705 741.967929,222.654809 C746.455444,276.556872 744.211686,370.898452 741.967929,418.056273 C739.711201,444.981365 730.74914,458.456881 710.516412,460.713608 L694.797138,462.970336 L694.797138,480.933367 L903.661148,480.933367 L903.661148,462.970336 L876.710117,460.713608 C854.25957,458.456881 847.515328,444.981365 845.2586,418.056273 C840.771085,375.372998 840.771085,290.032388 843.027812,236.130325 C854.246601,220.398082 903.661148,206.935535 948.575211,236.130325 L984.514243,144.032502 Z"></path>
        </g>
    </g>
</svg>