<?xml version="1.0" encoding="UTF-8"?>
<svg width="134px" height="66px" viewBox="0 0 134 66" version="1.1" xmlns="http://www.w3.org/2000/svg" xmlns:xlink="http://www.w3.org/1999/xlink">
    <title>Good Morning America</title>
    <desc>We Save Homes on Good Morning America</desc>
    <g stroke="none" stroke-width="1" fill="none" fill-rule="evenodd">
        <g fill="#8C8C8C" fill-rule="nonzero">
            <path d="M33.7,5.4 C34.6,3.1 36.7,1.3 39.3,0.7 C40.9,0.5 42.6,0.5 44.3,0.7 C46.9,1.4 48.9,3.4 49.9,5.6 C48.3,5.6 46.7,5.6 45.1,5.6 C43.5,4.3 41,3.6 39.2,5 C36.5,6.7 37.3,11 40.4,11.8 C42.3,12.5 44.2,11.5 45.4,10.2 C44.2,10.2 42.9,10.3 41.7,10.3 C41.7,9.2 41.7,8.1 41.6,7 C44.4,6.9 47.2,6.8 50,7 C50.4,9.6 49.4,12.5 47,14.1 C45,15.6 42.2,16.3 39.6,15.6 C34.8,14.9 31.8,9.5 33.7,5.4 Z" id="XMLID_27_"></path>
            <path d="M56.7,0.7 C59.4,0.4 62.6,0.3 64.7,2.2 C68.4,4.7 68.8,10 65.9,13.1 C63.4,15.9 58.7,16.8 55.2,15 C51.2,13.1 49.6,8.2 51.6,4.7 C52.5,2.7 54.4,1.3 56.7,0.7 Z M57.6,4.5 C55.9,5.1 54.9,6.8 55,8.4 C55.1,10.3 57,12.1 59.2,11.9 C62.3,12.2 64.3,8.6 62.9,6.3 C62.1,4.5 59.6,3.9 57.6,4.5 Z"></path>
            <path d="M74.4,0.7 C76.7,0.5 79.3,0.3 81.3,1.5 C83.7,2.9 85.5,5.3 85.3,8 C85.8,12.8 80.2,17 75.1,15.8 C72.6,15.5 70.7,13.8 69.3,12 C68.1,10.3 68.1,8.3 68.4,6.4 C69.1,3.7 71.5,1.3 74.4,0.7 Z M72.5,7.8 C72.8,9.8 74.4,12.1 76.9,11.9 C79.1,12.1 80.9,10.2 80.9,8.3 C81.3,6 78.9,3.9 76.4,4.3 C74.3,4.4 72.9,6.1 72.5,7.8 Z"></path>
            <path d="M86.1,0.7 C89.3,0.8 92.5,0.3 95.6,1 C101.6,2.9 102.2,11.1 97.4,14.4 C96.4,15.1 95.1,15.5 93.8,15.6 C91.2,15.8 88.7,15.9 86.1,15.7 C86.1,10.6 86.1,5.6 86.1,0.7 Z M90.3,4 C90.3,6.7 90.3,9.4 90.3,12.1 C92.1,12.1 94.3,12.2 95.5,10.8 C96.5,9 96.6,6.6 95.1,5 C93.8,4 92,4 90.3,4 Z"></path>
            <path d="M36.7,19.5 C39,17.7 42.5,16.9 45.4,18 C48.9,19.2 51.6,22.6 51,26.1 C50.7,30.1 46.4,33.5 41.9,33.1 C38.5,33 35.4,30.8 34.3,27.9 C34,27 34,26.1 33.8,25.1 C34.1,23 34.9,20.9 36.7,19.5 Z M41.3,21.6 C40.1,21.9 39.1,22.8 38.6,23.8 C37.3,26.4 40.1,29.9 43.3,29.1 C46.1,28.7 47.4,25.5 46.1,23.3 C45.4,21.8 43.1,21.3 41.3,21.6 Z"></path>
            <path d="M15.8,17.8 C17.7,17.8 19.6,17.7 21.4,17.9 C22.5,20.8 23.7,23.8 24.4,26.8 C25.5,23.8 26.6,20.9 27.5,17.9 C29.5,17.8 31.4,17.8 33.4,17.9 C33.3,22.9 33.5,27.8 33.3,32.8 C31.9,32.9 30.5,32.9 29.2,32.9 C29.1,29.9 29.4,26.8 29.1,23.8 C28.4,26.9 27.2,29.9 26.1,32.9 C25.1,32.9 24.1,32.9 23.1,32.9 C22.1,29.9 20.9,26.9 20.1,23.8 C19.9,26.8 20,29.9 20,32.9 C18.6,32.9 17.3,32.9 15.9,32.9 C15.6,30.2 15.8,27.5 15.7,24.8 C15.7,22.4 15.5,20.1 15.8,17.8 Z" id="XMLID_18_"></path>
            <path d="M51.9,17.8 C55,17.7 58.3,17.4 61.3,18.5 C64.1,19.8 64.5,23.1 63.3,25.5 C62.7,26.7 61.4,27.3 60.3,27.9 C61.7,29.5 63,31.2 64.3,32.8 C62.5,32.8 60.8,32.8 59,32.8 C58.1,31.3 57.2,29.9 56.2,28.4 C56.1,29.9 56.2,31.3 56.2,32.8 C54.8,32.8 53.3,32.8 51.9,32.8 C51.9,27.8 51.8,22.8 51.9,17.8 Z M56.1,21.3 C56.1,22.4 56.1,23.6 56.1,24.7 C57.1,24.6 58.2,24.7 59,24.2 C59.6,23.7 59.5,22.9 59.7,22.3 C58.7,21.6 57.4,21.3 56.1,21.3 Z"></path>
            <path d="M65.3,17.9 C66.5,17.8 67.8,17.6 69,17.9 C71.1,20.5 73,23.3 74.9,26.1 C74.7,23.3 74.6,20.5 75,17.8 C76.4,17.8 77.8,17.8 79.2,17.9 C79.1,22.9 79.5,27.9 79,32.9 C77.8,32.9 76.6,32.9 75.4,32.9 C73.4,30.2 71.5,27.5 69.5,24.8 C69.6,27.5 69.5,30.2 69.6,32.8 C68.2,32.8 66.7,32.8 65.3,32.8 C65.4,27.9 65.3,22.9 65.3,17.9 Z" id="XMLID_15_"></path>
            <path d="M80.6,17.8 C82,17.7 83.4,17.7 84.8,17.7 C84.8,22.7 84.8,27.8 84.8,32.8 C83.4,32.8 81.9,32.8 80.5,32.8 C80.7,27.8 80.6,22.8 80.6,17.8 Z" id="XMLID_14_"></path>
            <path d="M86.3,18.2 C87.1,17.3 88.9,17.8 90,17.9 C92.2,20.4 93.9,23.3 96,25.8 C95.7,23.1 95.6,20.4 96,17.7 C97.3,17.7 98.7,17.6 100,17.9 C100.4,19.3 100.2,20.8 100.2,22.3 C100,25.8 100.4,29.3 100.1,32.8 C98.9,32.8 97.6,32.8 96.4,32.8 C94.3,30.1 92.5,27.4 90.4,24.7 C90.6,27.4 90.5,30.1 90.5,32.7 C89.1,32.7 87.6,32.7 86.2,32.7 C86.3,28 86.3,23.1 86.3,18.2 Z" id="XMLID_13_"></path>
            <path d="M101.3,22.6 C102.4,20 105.1,17.9 108.2,17.6 C112.2,17 116.3,19.4 117.5,22.9 C115.9,22.9 114.3,22.9 112.7,22.9 C111.5,21.8 109.6,21 107.9,21.6 C105,22.4 104.4,26.2 106.5,28 C108.2,29.8 111.6,29.4 113,27.4 C111.8,27.4 110.6,27.4 109.3,27.4 C109.3,26.3 109.3,25.3 109.5,24.2 C112.3,24.2 115,24.2 117.8,24.2 C118,26.5 117.5,28.9 115.7,30.5 C112.9,33.4 107.6,34 104.3,31.5 C101.2,29.6 100.2,25.8 101.3,22.6 Z" id="XMLID_12_"></path>
            <path d="M91.9,41.1 C93.3,37.9 96.7,35.3 100.5,34.8 C104.4,33.9 108.7,35.4 111.3,38 C112.7,39.3 113.4,41.1 114.2,42.8 C112.1,42.8 110.1,42.8 108,42.8 C107,41.3 105.4,39.9 103.3,39.9 C100,39.5 96.7,42.2 97,45.3 C97,48.3 100.3,51.3 103.8,50.4 C105.6,50.2 106.8,48.8 107.9,47.6 C109.9,47.6 112,47.6 114,47.6 C113.1,50.1 111.7,52.6 109.2,54 C105.6,56.2 100.6,56.3 96.8,54.4 C92,51.7 89.8,45.8 91.9,41.1 Z" id="XMLID_11_"></path>
            <path d="M9,34.9 C10.5,34.9 12.1,34.9 13.6,34.9 C16.5,41.7 19.4,48.5 22.3,55.3 C20.2,55.1 18,55.2 15.9,55.2 C15.5,54.2 15.1,53.3 14.8,52.3 C12.4,52.3 10,52.2 7.7,52.4 C7.3,53.3 7,54.3 6.6,55.2 C4.4,55.2 2.3,55.2 0.1,55.3 C1.2,53.4 1.9,51.3 2.8,49.3 C4.9,44.5 7,39.7 9,34.9 Z M9.2,47.9 C10.6,47.9 12,47.9 13.3,47.9 C12.5,45.9 11.8,43.8 11.1,41.8 C10.8,43.9 10,45.9 9.2,47.9 Z"></path>
            <path d="M22.9,34.9 C25.5,34.9 28,34.9 30.6,34.9 C32.1,38.9 33.4,43 34.8,47 C36.2,43 37.6,38.9 39,34.9 C41.6,34.9 44.2,34.9 46.7,34.9 C46.5,41.7 46.7,48.5 46.6,55.3 C44.8,55.2 42.9,55.2 41.1,55.2 C41.1,51.1 41.1,47.1 41.1,43 C39.4,47 38.3,51.2 36.7,55.2 C35.4,55.2 34,55.2 32.7,55.3 C31.2,51.1 29.7,46.8 28.3,42.6 C28.3,46.8 28.3,51 28.3,55.3 C26.5,55.3 24.7,55.2 22.8,55.3 C22.8,48.5 22.9,41.7 22.9,34.9 Z" id="XMLID_8_"></path>
            <path d="M49.1,34.9 C53.2,34.9 57.4,34.8 61.6,34.9 C61.6,36.5 61.6,38 61.6,39.6 C59.3,39.6 57.1,39.6 54.8,39.6 C54.8,40.6 54.8,41.5 54.8,42.5 C57.1,42.5 59.3,42.5 61.6,42.5 C61.6,44.1 61.6,45.6 61.6,47.2 C59.4,47.2 57.1,47.2 54.9,47.2 C54.9,48.3 54.9,49.5 54.9,50.6 C57.2,50.6 59.4,50.6 61.7,50.6 C61.7,52.1 61.7,53.7 61.7,55.2 C57.5,55 53.4,55.1 49.2,55.2 C49.1,48.5 49,41.7 49.1,34.9 Z" id="XMLID_7_"></path>
            <path d="M64.8,34.9 C68.4,35 72.1,34.6 75.7,35.3 C77.5,35.6 79,36.6 80,38 C81.6,40.5 81.4,43.8 79.7,46.1 C78.8,47.2 77.4,47.9 76.1,48.4 C78,50.7 79.8,53 81.6,55.3 C79.2,55.2 76.9,55.2 74.5,55.2 C73.1,53.1 71.7,51 70.3,48.8 C70.7,50.9 70.6,53 70.5,55.1 C68.6,55.2 66.7,55.1 64.8,55.2 C64.9,48.5 64.9,41.7 64.8,34.9 Z M70.5,39.6 C70.5,41.1 70.6,42.7 70.4,44.2 C71.7,44.1 73.1,44.4 74.3,43.7 C75.6,43.1 75.7,41.2 74.6,40.4 C73.5,39.5 71.9,39.7 70.5,39.6 Z"></path>
            <path d="M83.8,34.9 C85.7,35 87.6,34.7 89.5,35.1 C89.7,41.8 89.5,48.6 89.6,55.3 C87.7,55.2 85.8,55.2 83.8,55.2 C83.8,48.4 83.9,41.6 83.8,34.9 Z" id="XMLID_4_"></path>
            <path d="M120.6,34.9 C122.1,34.9 123.7,34.9 125.2,34.9 C128.1,41.7 131.1,48.4 133.8,55.3 C131.7,55.2 129.7,55.2 127.6,55.3 C127.2,54.3 126.9,53.4 126.6,52.4 C124.2,52.2 121.8,52.1 119.4,52.4 C118.9,53.3 118.7,54.2 118.2,55.1 C116.1,55.3 114,55 111.9,55.2 C114.8,48.4 117.7,41.7 120.6,34.9 Z M120.8,47.9 C122.2,47.9 123.6,47.9 125,47.8 C124.3,45.8 123.5,43.8 122.9,41.8 C122.4,44 121.6,46 120.8,47.9 Z"></path>
            <path d="M7.2,61.3 C24.3,58.4 41.6,57.6 59,57 C67.3,56.8 75.5,57 83.8,56.9 C94.7,57.2 105.7,57.6 116.5,58.8 C122.1,59.6 127.8,60 133.1,61.9 C130.1,62.4 127,62.8 124.2,64 C122.4,64.6 120.7,65.9 118.7,65.4 C100.5,61.4 81.7,60.1 63,59.4 C53.5,59.5 44,59.2 34.5,59.8 C24.3,60.3 14,61.1 3.9,62.9 C2.8,63.1 1.6,63.3 0.4,63 C2.5,62 4.9,61.8 7.2,61.3 Z" id="XMLID_1_"></path>
        </g>
    </g>
</svg>