<svg id="flat" height="512" viewBox="0 0 512 512" width="512" xmlns="http://www.w3.org/2000/svg"><path d="m384 184 79.91484 39.95742a32 32 0 0 1 17.57863 25.96421l6.50653 78.07837-40 32v112h-248v-208l4.59687-18.38748a32 32 0 0 1 15.72129-20.33152l75.68184-41.281z" fill="#4fbfcb"/><path d="m248 472h152a8 8 0 0 0 8-8v-16a8 8 0 0 0 -8-8h-152z" fill="#c69324"/><rect fill="#eebf3e" height="208" rx="8" width="240" x="24" y="264"/><circle cx="144" cy="368" fill="#efe8e0" r="24"/><path d="m368 200-16 40h-16l-16-40z" fill="#cc4c4d"/><path d="m400 88v64.00006a55.99994 55.99994 0 0 1 -55.99994 55.99994h-.00012a55.99994 55.99994 0 0 1 -55.99994-55.99994v-64.00006z" fill="#f5c99d"/><path d="m384 40h-5.40357a16 16 0 0 0 -5.05964.82107l-19.07362 6.35786a16 16 0 0 1 -5.05964.82107h-29.40353a32 32 0 0 0 -32 32v8h112v-32a16 16 0 0 0 -16-16z" fill="#cc4c4d"/><path d="m352 240 8 24v72l-16 16-16-16v-72l8-24z" fill="#cc4c4d"/><path d="m312 440a38.8328 38.8328 0 0 1 21.46623-34.7331l70.11148-35.05573a8 8 0 0 0 4.42229-7.15544v-35.05573h80l-7.03876 63.34881a16 16 0 0 1 -8.74672 12.54393l-72.21452 36.10726z" fill="#f5c99d"/><path d="m344 168h-16v-16h16a8.00541 8.00541 0 0 0 8-8v-8a24.02624 24.02624 0 0 1 24-24h24v16h-24a8.00541 8.00541 0 0 0 -8 8v8a24.02624 24.02624 0 0 1 -24 24z" fill="#d6ac89"/><path d="m312 112h16v16h-16z" fill="#d6ac89"/><path d="m352 248h-16a8 8 0 0 1 0-16h16a8 8 0 0 1 0 16z" fill="#9b413a"/><path d="m427.57771 85.78885-9.88855-4.94427a8 8 0 0 0 -3.5777-.84458h-14.11146v64h14.11146a8 8 0 0 0 3.5777-.84458l9.88855-4.94427a8 8 0 0 0 4.42229-7.15542v-38.11146a8 8 0 0 0 -4.42229-7.15542z" fill="#eebf3e"/><path d="m289.85156 237.125-34.4375-41.32812a31.991 31.991 0 0 1 -7.41406-20.47921v-39.31767a16 16 0 0 1 16-16v55.29648a16.01235 16.01235 0 0 0 3.71094 10.2504l34.4375 41.32812z" fill="#c69324"/><path d="m260.42229 85.78885 9.88855-4.94427a8 8 0 0 1 3.5777-.84458h14.11146v64h-14.11146a8 8 0 0 1 -3.5777-.84458l-9.88855-4.94427a8 8 0 0 1 -4.42229-7.15542v-38.11146a8 8 0 0 1 4.42229-7.15542z" fill="#eebf3e"/></svg>