<svg id="flat" height="512" viewBox="0 0 512 512" width="512" xmlns="http://www.w3.org/2000/svg"><path d="m229.967 113.989 66.033 22.011 32-88-64-24z" fill="#cc4c4d"/><path d="m280 80-32.561-12.21-17.472 46.199 66.033 22.011 6.642-18.264z" fill="#9b413a"/><path d="m184 144 32-88 64 24-32 88z" fill="#cc4c4d"/><path d="m300.001 28.3h15.999v319.399h-15.999z" fill="#efe8e0" transform="matrix(.376 -.927 .927 .376 18.056 402.803)"/><path d="m353.51465 173.83838-10.93213-3.64453a8 8 0 0 0 -9.68552 4.01166l-35.85487 71.71022a8.00059 8.00059 0 0 1 -3.03969 3.28251l-36.10254 21.66162a8.00046 8.00046 0 0 1 -4.11624 1.14014h-53.78366l-48 8-56.44908 21.1684a16 16 0 0 0 -9.7664 10.5857l-29.47652 103.16695-.308 2.19907v78.87988h32l15.8375-71.26922.45693-1.41779 16.02539-37.39307 7.68018 46.08008h96l15.41553-69.36914a8.00088 8.00088 0 0 1 2.64225-4.37213l99.701-84.36269a8.00025 8.00025 0 0 0 2.72368-4.792l14.39346-86.36073a8.00031 8.00031 0 0 0 -5.36127-8.90493z" fill="#4fbfcb"/><path d="m152 256h48a0 0 0 0 1 0 0v24a24 24 0 0 1 -24 24 24 24 0 0 1 -24-24v-24a0 0 0 0 1 0 0z" fill="#f5c99d"/><path d="m160 224h32a8 8 0 0 1 8 8v24a0 0 0 0 1 0 0h-48a0 0 0 0 1 0 0v-24a8 8 0 0 1 8-8z" fill="#eebf3e"/><path d="m128 432h96v64h-96z" fill="#efe8e0"/><g fill="#f5c99d"><path d="m56 456v40h32l8.889-40z"/><path d="m353.51465 173.83838-10.93213-3.64453a8 8 0 0 0 -9.68555 4.01172l-18.61133 37.22314 37.71436 12.57129 6.876-41.25684a8.00055 8.00055 0 0 0 -5.36135-8.90478z"/></g></svg>