<svg id="flat" height="512" viewBox="0 0 512 512" width="512" xmlns="http://www.w3.org/2000/svg"><rect fill="#4fbfcb" height="232" rx="8" width="336" x="88" y="136"/><path d="m40 280 6.98116 27.92464a8 8 0 0 0 4.95215 5.55035l58.05829 21.77186a7.99994 7.99994 0 0 0 4.12418.40052l39.19941-6.53324a8 8 0 0 0 6.68481-7.89113v-10.446a8 8 0 0 0 -6.68481-7.89115l-37.29682-6.21614a8 8 0 0 1 -5.84023-4.31344l-5.33356-10.66713a8 8 0 0 1 -.84458-3.57768v-43.68925a8 8 0 0 1 1.3436-4.43761l13.27813-19.91719a7.99992 7.99992 0 0 1 3.68527-2.99021l30.68928-12.27571a8 8 0 0 0 4.61834-9.95764l-3.38134-10.144a8 8 0 0 0 -9.15839-5.31483l-32.44055 6.48811a8.00055 8.00055 0 0 0 -1.24006.354l-59.46097 22.29787a8 8 0 0 0 -4.95215 5.55035l-6.98116 27.92465z" fill="#efe8e0"/><path d="m48 232h16a8 8 0 0 1 8 8v32a8 8 0 0 1 -8 8h-16a24 24 0 0 1 -24-24 24 24 0 0 1 24-24z" fill="#eebf3e"/><path d="m154.2334 174.69971a8.00039 8.00039 0 0 0 -9.15869-5.31494l-25.57471 5.11523 9.91164 29.73535 23.58447-9.43408a7.99992 7.99992 0 0 0 4.61866-9.95752z" fill="#f5c99d"/><path d="m153.31543 302.88574-25.31543-4.21924v34.667l25.31543-4.21973a7.99924 7.99924 0 0 0 6.68457-7.89111v-10.4458a8 8 0 0 0 -6.68457-7.89112z" fill="#f5c99d"/><path d="m232 64-27.92464 6.98116a8 8 0 0 0 -5.55035 4.95215l-21.53054 57.41478a8 8 0 0 0 -.09884 5.33881l13.281 39.84292a8 8 0 0 0 7.58944 5.47018h10.23393a8 8 0 0 0 8-8v-22.11146a8 8 0 0 1 .84458-3.5777l4.94427-9.88855a8 8 0 0 1 7.15542-4.42229h54.11146a8 8 0 0 1 7.15542 4.42229l4.94427 9.88855a8 8 0 0 1 .84458 3.5777v22.11146a8 8 0 0 0 8 8h10.23393a8 8 0 0 0 7.58946-5.47018l13.281-39.84292a8 8 0 0 0 -.09884-5.33881l-21.53055-57.41478a8 8 0 0 0 -5.55035-4.95215l-27.92465-6.98116" fill="#efe8e0"/><path d="m256 48h16a8 8 0 0 1 8 8v32a8 8 0 0 1 -8 8h-16a24 24 0 0 1 -24-24 24 24 0 0 1 24-24z" fill="#eebf3e" transform="matrix(0 1 -1 0 328 -184)"/><path d="m232 440-35.49376-14.1975a8 8 0 0 1 -4.98917-6.63179l-7.25324-72.53236a8.00005 8.00005 0 0 1 1.10036-4.912l42.31918-70.532a8 8 0 0 1 11.29755-2.54044l11.14293 7.42862a8 8 0 0 1 2.71781 10.23412l-27.35972 54.71945a8 8 0 0 0 -.43405 6.10753l5.12872 15.38616a8 8 0 0 0 7.58946 5.47021h38.92022a8 8 0 0 0 5.65686-2.34315l11.3137-11.3137a8 8 0 0 0 2.34315-5.65686v-28.68629a8 8 0 0 1 8-8h9.96559a8 8 0 0 1 7.69219 5.80223l13.61747 47.66116a8 8 0 0 1 -.20155 5.00675l-21.5987 57.59655a8 8 0 0 1 -5.55035 4.95215l-27.92465 6.98116z" fill="#efe8e0"/><path d="m256 408h16a8 8 0 0 1 8 8v32a8 8 0 0 1 -8 8h-16a24 24 0 0 1 -24-24 24 24 0 0 1 24-24z" fill="#eebf3e" transform="matrix(0 -1 1 0 -176 688)"/><path d="m472 232-6.74816-26.99264a8 8 0 0 0 -6.33006-5.93067l-79.74211-14.49857a8 8 0 0 0 -5.86869 1.21456l-64.22685 42.8179a8 8 0 0 0 -3.15186 9.18622l3.44248 10.32744a8 8 0 0 0 10.39845 4.96081l53.89428-20.21036a8 8 0 0 1 4.74927-.2705l23.52354 5.88088a8 8 0 0 1 6.05971 7.76114v30.44008a8 8 0 0 1 -2.34315 5.65686l-11.3137 11.3137a8 8 0 0 1 -5.65686 2.34315h-36.68629a8 8 0 0 0 -8 8v9.96559a8 8 0 0 0 5.80223 7.69219l47.66116 13.61747a8 8 0 0 0 5.00675-.20155l57.59655-21.5987a8 8 0 0 0 4.95215-5.55035l6.98116-27.92465z" fill="#efe8e0"/><path d="m464 232h16a8 8 0 0 1 8 8v32a8 8 0 0 1 -8 8h-16a24 24 0 0 1 -24-24 24 24 0 0 1 24-24z" fill="#eebf3e" transform="matrix(-1 0 0 -1 928 512)"/><path d="m376 296h-24a7.99977 7.99977 0 0 0 -8 8v9.96533a8.00027 8.00027 0 0 0 5.80225 7.69238l26.19775 7.48487z" fill="#f5c99d"/><path d="m328 216-18.916 12.61035a8.001 8.001 0 0 0 -3.15185 9.18653l3.44238 10.32714a8.00031 8.00031 0 0 0 10.39893 4.96094l22.54248-8.45361z" fill="#f5c99d"/><rect fill="#9b413a" height="56" rx="8" width="88" x="216" y="184"/><rect fill="#cc4c4d" height="56" rx="8" width="80" x="168" y="224"/><g fill="#f5c99d"><path d="m181.3335 152 8.84326 26.52979a8.00009 8.00009 0 0 0 7.58935 5.47021h10.23389a8.00008 8.00008 0 0 0 8-8v-22.11182a7.92675 7.92675 0 0 1 .4458-1.88818z"/><path d="m295.5542 152a7.92675 7.92675 0 0 1 .4458 1.88818v22.11182a8.00008 8.00008 0 0 0 8 8h10.23389a8.00009 8.00009 0 0 0 7.58935-5.47021l8.84326-26.52979z"/><path d="m329.14307 344-7.48536-26.19775a7.99925 7.99925 0 0 0 -7.69189-5.80225h-9.96582a7.99977 7.99977 0 0 0 -8 8v24z"/><path d="m252.8418 286.31641a7.99989 7.99989 0 0 0 -2.71778-10.23389l-11.14302-7.42871a7.9995 7.9995 0 0 0 -11.29737 2.54053l-10.45263 17.42089 27.5688 13.78467z"/></g></svg>